<?xml version="1.0" encoding="UTF-8"?>
<!-- Généré par scripts/export_sprites.py. Éditable à la main :
     la carte le recharge tel quel. Mais relancer le script écrase
     ce fichier. -->
<svg xmlns="http://www.w3.org/2000/svg" viewBox="0 0 100 100" width="100" height="100">
<ellipse cx="50.0" cy="89.0" rx="34.0" ry="4.0" fill="#1F3346" opacity="0.10"/><path d="M92.7 70.0 Q92.7 70.0 89.5 76.9 Q86.4 83.9 71.7 86.0 Q57.0 88.0 42.2 87.9 Q27.5 87.8 20.9 81.8 Q14.4 75.9 12.2 69.6 Q9.9 63.4 18.1 57.3 Q26.2 51.3 41.6 51.6 Q57.0 52.0 70.8 54.4 Q84.5 56.8 88.6 63.4Z" fill="#CFE3B4" opacity="0.9"/><path d="M91.0 76.0 Q91.0 76.0 83.8 79.8 Q76.6 83.6 66.7 86.4 Q56.8 89.1 45.2 87.4 Q33.7 85.7 24.5 83.0 Q15.4 80.3 13.4 75.8 Q11.4 71.2 22.0 68.4 Q32.6 65.7 44.7 64.3 Q56.8 62.9 65.9 65.8 Q75.0 68.8 83.0 72.4Z" fill="#BCD6A2" opacity="0.8"/><rect x="15.5" y="56.8" width="1.0" height="8.0" fill="#FFFFFF"/><rect x="13.5" y="58.6" width="5.0" height="0.9" fill="#FFFFFF"/><ellipse cx="16.0" cy="65.0" rx="2.4" ry="0.6" fill="#1F3346" opacity="0.08"/><rect x="25.2" y="56.8" width="1.0" height="8.0" fill="#FFFFFF"/><rect x="23.2" y="58.6" width="5.0" height="0.9" fill="#FFFFFF"/><ellipse cx="25.7" cy="65.0" rx="2.4" ry="0.6" fill="#1F3346" opacity="0.08"/><rect x="34.9" y="56.8" width="1.0" height="8.0" fill="#FFFFFF"/><rect x="32.9" y="58.6" width="5.0" height="0.9" fill="#FFFFFF"/><ellipse cx="35.4" cy="65.0" rx="2.4" ry="0.6" fill="#1F3346" opacity="0.08"/><rect x="44.6" y="56.8" width="1.0" height="8.0" fill="#FFFFFF"/><rect x="42.7" y="58.6" width="5.0" height="0.9" fill="#FFFFFF"/><ellipse cx="45.1" cy="65.0" rx="2.4" ry="0.6" fill="#1F3346" opacity="0.08"/><rect x="54.4" y="56.8" width="1.0" height="8.0" fill="#FFFFFF"/><rect x="52.4" y="58.6" width="5.0" height="0.9" fill="#FFFFFF"/><ellipse cx="54.9" cy="65.0" rx="2.4" ry="0.6" fill="#1F3346" opacity="0.08"/><rect x="64.1" y="56.8" width="1.0" height="8.0" fill="#FFFFFF"/><rect x="62.1" y="58.6" width="5.0" height="0.9" fill="#FFFFFF"/><ellipse cx="64.6" cy="65.0" rx="2.4" ry="0.6" fill="#1F3346" opacity="0.08"/><rect x="73.8" y="56.8" width="1.0" height="8.0" fill="#FFFFFF"/><rect x="71.8" y="58.6" width="5.0" height="0.9" fill="#FFFFFF"/><ellipse cx="74.3" cy="65.0" rx="2.4" ry="0.6" fill="#1F3346" opacity="0.08"/><rect x="83.5" y="56.8" width="1.0" height="8.0" fill="#FFFFFF"/><rect x="81.5" y="58.6" width="5.0" height="0.9" fill="#FFFFFF"/><ellipse cx="84.0" cy="65.0" rx="2.4" ry="0.6" fill="#1F3346" opacity="0.08"/><rect x="11.3" y="62.5" width="1.3" height="10.5" fill="#FFFFFF"/><rect x="8.7" y="64.9" width="6.5" height="1.2" fill="#FFFFFF"/><ellipse cx="12.0" cy="73.3" rx="3.1" ry="0.7" fill="#1F3346" opacity="0.11"/><rect x="24.0" y="62.5" width="1.3" height="10.5" fill="#FFFFFF"/><rect x="21.4" y="64.9" width="6.5" height="1.2" fill="#FFFFFF"/><ellipse cx="24.7" cy="73.3" rx="3.1" ry="0.7" fill="#1F3346" opacity="0.11"/><rect x="36.7" y="62.5" width="1.3" height="10.5" fill="#FFFFFF"/><rect x="34.1" y="64.9" width="6.5" height="1.2" fill="#FFFFFF"/><ellipse cx="37.3" cy="73.3" rx="3.1" ry="0.7" fill="#1F3346" opacity="0.11"/><rect x="49.3" y="62.5" width="1.3" height="10.5" fill="#FFFFFF"/><rect x="46.7" y="64.9" width="6.5" height="1.2" fill="#FFFFFF"/><ellipse cx="50.0" cy="73.3" rx="3.1" ry="0.7" fill="#1F3346" opacity="0.11"/><rect x="62.0" y="62.5" width="1.3" height="10.5" fill="#FFFFFF"/><rect x="59.4" y="64.9" width="6.5" height="1.2" fill="#FFFFFF"/><ellipse cx="62.7" cy="73.3" rx="3.1" ry="0.7" fill="#1F3346" opacity="0.11"/><rect x="74.7" y="62.5" width="1.3" height="10.5" fill="#FFFFFF"/><rect x="72.1" y="64.9" width="6.5" height="1.2" fill="#FFFFFF"/><ellipse cx="75.3" cy="73.3" rx="3.1" ry="0.7" fill="#1F3346" opacity="0.11"/><rect x="87.3" y="62.5" width="1.3" height="10.5" fill="#FFFFFF"/><rect x="84.7" y="64.9" width="6.5" height="1.2" fill="#FFFFFF"/><ellipse cx="88.0" cy="73.3" rx="3.1" ry="0.7" fill="#1F3346" opacity="0.11"/><rect x="13.2" y="69.3" width="1.6" height="13.0" fill="#FFFFFF"/><rect x="10.0" y="72.2" width="8.1" height="1.5" fill="#FFFFFF"/><ellipse cx="14.0" cy="82.6" rx="3.9" ry="0.9" fill="#1F3346" opacity="0.14"/><rect x="27.6" y="69.3" width="1.6" height="13.0" fill="#FFFFFF"/><rect x="24.4" y="72.2" width="8.1" height="1.5" fill="#FFFFFF"/><ellipse cx="28.4" cy="82.6" rx="3.9" ry="0.9" fill="#1F3346" opacity="0.14"/><rect x="42.0" y="69.3" width="1.6" height="13.0" fill="#FFFFFF"/><rect x="38.8" y="72.2" width="8.1" height="1.5" fill="#FFFFFF"/><ellipse cx="42.8" cy="82.6" rx="3.9" ry="0.9" fill="#1F3346" opacity="0.14"/><rect x="56.4" y="69.3" width="1.6" height="13.0" fill="#FFFFFF"/><rect x="53.2" y="72.2" width="8.1" height="1.5" fill="#FFFFFF"/><ellipse cx="57.2" cy="82.6" rx="3.9" ry="0.9" fill="#1F3346" opacity="0.14"/><rect x="70.8" y="69.3" width="1.6" height="13.0" fill="#FFFFFF"/><rect x="67.6" y="72.2" width="8.1" height="1.5" fill="#FFFFFF"/><ellipse cx="71.6" cy="82.6" rx="3.9" ry="0.9" fill="#1F3346" opacity="0.14"/><rect x="85.2" y="69.3" width="1.6" height="13.0" fill="#FFFFFF"/><rect x="82.0" y="72.2" width="8.1" height="1.5" fill="#FFFFFF"/><ellipse cx="86.0" cy="82.6" rx="3.9" ry="0.9" fill="#1F3346" opacity="0.14"/><rect x="43.0" y="34.0" width="14.0" height="22.0" fill="#EDE4D6"/><rect x="51.0" y="34.0" width="6.0" height="22.0" fill="#D8C9B4"/><rect x="41.0" y="32.0" width="18.0" height="3.0" fill="#D8C9B4"/><rect x="49.4" y="23.0" width="1.1" height="9.0" fill="#F0C24B"/><rect x="47.2" y="25.0" width="5.6" height="1.1" fill="#F0C24B"/><rect x="11.2" y="56.4" width="1.5" height="4.0" fill="#6B5442"/><path d="M12.0 40.0 15.5 48.4 8.5 48.4Z" fill="#3F7D5E"/><path d="M12.0 46.0 17.9 53.8 6.1 53.8Z" fill="#2E5E47"/><path d="M12.0 51.6 20.2 58.8 3.8 58.8Z" fill="#3F7D5E"/><rect x="89.3" y="58.8" width="1.4" height="3.6" fill="#6B5442"/><path d="M90.0 44.0 93.2 51.6 86.8 51.6Z" fill="#3F7D5E"/><path d="M90.0 49.4 95.3 56.4 84.7 56.4Z" fill="#2E5E47"/><path d="M90.0 54.4 97.3 61.0 82.7 61.0Z" fill="#3F7D5E"/>
</svg>
