<?xml version="1.0" encoding="UTF-8"?>
<!-- Généré par scripts/export_sprites.py. Éditable à la main :
     la carte le recharge tel quel. Mais relancer le script écrase
     ce fichier. -->
<svg xmlns="http://www.w3.org/2000/svg" viewBox="0 0 100 100" width="100" height="100">
<ellipse cx="50.0" cy="90.0" rx="40.0" ry="4.0" fill="#1F3346" opacity="0.10"/><rect x="12.7" y="55.9" width="2.6" height="6.8" fill="#6B5442"/><path d="M14.0 28.0 20.0 42.3 8.0 42.3Z" fill="#3F7D5E"/><path d="M14.0 38.2 24.1 51.5 3.9 51.5Z" fill="#2E5E47"/><path d="M14.0 47.7 27.9 60.0 0.1 60.0Z" fill="#3F7D5E"/><rect x="27.0" y="53.3" width="2.0" height="5.2" fill="#6B5442"/><path d="M28.0 32.0 32.6 42.9 23.4 42.9Z" fill="#4A8C69"/><path d="M28.0 39.8 35.7 49.9 20.3 49.9Z" fill="#3F7D5E"/><path d="M28.0 47.1 38.6 56.5 17.4 56.5Z" fill="#4A8C69"/><rect x="72.8" y="54.2" width="2.4" height="6.4" fill="#6B5442"/><path d="M74.0 28.0 79.6 41.4 68.4 41.4Z" fill="#3F7D5E"/><path d="M74.0 37.6 83.5 50.1 64.5 50.1Z" fill="#2E5E47"/><path d="M74.0 46.6 87.1 58.1 60.9 58.1Z" fill="#3F7D5E"/><rect x="87.0" y="57.3" width="2.0" height="5.2" fill="#6B5442"/><path d="M88.0 36.0 92.6 46.9 83.4 46.9Z" fill="#4A8C69"/><path d="M88.0 43.8 95.7 53.9 80.3 53.9Z" fill="#3F7D5E"/><path d="M88.0 51.1 98.6 60.5 77.4 60.5Z" fill="#4A8C69"/><rect x="95.2" y="60.0" width="1.7" height="4.4" fill="#6B5442"/><path d="M96.0 42.0 99.9 51.2 92.1 51.2Z" fill="#3F7D5E"/><path d="M96.0 48.6 102.5 57.2 89.5 57.2Z" fill="#2E5E47"/><path d="M96.0 54.8 105.0 62.7 87.0 62.7Z" fill="#3F7D5E"/><rect x="30.0" y="42.0" width="40.0" height="24.0" fill="#DCD8D0"/><rect x="58.0" y="42.0" width="12.0" height="24.0" fill="#C8C3B9"/><path d="M26 42 L50 22 L74 42 Z" fill="#3E4750"/><path d="M50 22 L74 42 L50 42 Z" fill="#333B43"/><rect x="49.4" y="16.0" width="1.2" height="7.0" fill="#3E4750"/><ellipse cx="50.0" cy="16.0" rx="1.6" ry="1.6" fill="#3E4750"/><path d="M36 66 Q36 46 50 46 Q64 46 64 66 Z" fill="#C8C3B9"/><path d="M39 66 Q39 49 50 49 Q61 49 61 66 Z" fill="#ADA79C" opacity="0.7"/><path d="M16 60 Q50 54 84 60 L84 72 L16 72 Z" fill="#4E7F45"/><path d="M16 62 Q50 57 84 62 L84 66 L16 66 Z" fill="#5E8F52" opacity="0.6"/><rect x="18.0" y="70.0" width="64.0" height="12.0" fill="#DCD8D0"/><rect x="16.0" y="68.0" width="68.0" height="3.0" fill="#ADA79C"/><path d="M19 68 L25 68 L24 63 L20 63 Z" fill="#C8C3B9"/><ellipse cx="19.6" cy="60.2" rx="1.7" ry="1.7" fill="#E8A0B4"/><ellipse cx="24.4" cy="60.2" rx="1.7" ry="1.7" fill="#E8A0B4"/><ellipse cx="22.0" cy="58.4" rx="1.7" ry="1.7" fill="#E8A0B4"/><ellipse cx="20.6" cy="62.0" rx="1.7" ry="1.7" fill="#E8A0B4"/><ellipse cx="23.4" cy="62.0" rx="1.7" ry="1.7" fill="#E8A0B4"/><path d="M30 68 L36 68 L35 63 L31 63 Z" fill="#C8C3B9"/><ellipse cx="30.6" cy="60.2" rx="1.7" ry="1.7" fill="#F0E08A"/><ellipse cx="35.4" cy="60.2" rx="1.7" ry="1.7" fill="#F0E08A"/><ellipse cx="33.0" cy="58.4" rx="1.7" ry="1.7" fill="#F0E08A"/><ellipse cx="31.6" cy="62.0" rx="1.7" ry="1.7" fill="#F0E08A"/><ellipse cx="34.4" cy="62.0" rx="1.7" ry="1.7" fill="#F0E08A"/><path d="M41 68 L47 68 L46 63 L42 63 Z" fill="#C8C3B9"/><ellipse cx="41.6" cy="60.2" rx="1.7" ry="1.7" fill="#E05A5A"/><ellipse cx="46.4" cy="60.2" rx="1.7" ry="1.7" fill="#E05A5A"/><ellipse cx="44.0" cy="58.4" rx="1.7" ry="1.7" fill="#E05A5A"/><ellipse cx="42.6" cy="62.0" rx="1.7" ry="1.7" fill="#E05A5A"/><ellipse cx="45.4" cy="62.0" rx="1.7" ry="1.7" fill="#E05A5A"/><path d="M62 68 L68 68 L67 63 L63 63 Z" fill="#C8C3B9"/><ellipse cx="62.6" cy="60.2" rx="1.7" ry="1.7" fill="#EFE6D8"/><ellipse cx="67.4" cy="60.2" rx="1.7" ry="1.7" fill="#EFE6D8"/><ellipse cx="65.0" cy="58.4" rx="1.7" ry="1.7" fill="#EFE6D8"/><ellipse cx="63.6" cy="62.0" rx="1.7" ry="1.7" fill="#EFE6D8"/><ellipse cx="66.4" cy="62.0" rx="1.7" ry="1.7" fill="#EFE6D8"/><path d="M73 68 L79 68 L78 63 L74 63 Z" fill="#C8C3B9"/><ellipse cx="73.6" cy="60.2" rx="1.7" ry="1.7" fill="#E8A0B4"/><ellipse cx="78.4" cy="60.2" rx="1.7" ry="1.7" fill="#E8A0B4"/><ellipse cx="76.0" cy="58.4" rx="1.7" ry="1.7" fill="#E8A0B4"/><ellipse cx="74.6" cy="62.0" rx="1.7" ry="1.7" fill="#E8A0B4"/><ellipse cx="77.4" cy="62.0" rx="1.7" ry="1.7" fill="#E8A0B4"/><path d="M84 68 L90 68 L89 63 L85 63 Z" fill="#C8C3B9"/><ellipse cx="84.6" cy="60.2" rx="1.7" ry="1.7" fill="#E89A55"/><ellipse cx="89.4" cy="60.2" rx="1.7" ry="1.7" fill="#E89A55"/><ellipse cx="87.0" cy="58.4" rx="1.7" ry="1.7" fill="#E89A55"/><ellipse cx="85.6" cy="62.0" rx="1.7" ry="1.7" fill="#E89A55"/><ellipse cx="88.4" cy="62.0" rx="1.7" ry="1.7" fill="#E89A55"/><rect x="43.0" y="62.0" width="14.0" height="22.0" fill="#DCD8D0"/><rect x="41.0" y="60.0" width="18.0" height="3.0" fill="#ADA79C"/><path d="M45.4 62 Q45.4 50 47.6 45 Q49 41.6 52.4 41.6 Q55.4 41.6 55.4 45.4 Q55.4 51 54.6 62 Z" fill="#FFFFFF"/><path d="M52.4 41.6 Q55.4 41.6 55.4 45.4 Q55.4 51 54.6 62 L51.6 62 Q52.6 50 52.4 41.6 Z" fill="#EDEAE2"/><path d="M47.4 46.6 Q50.4 40.4 53.6 46.6 Q50.4 43.4 47.4 46.6 Z" fill="#FFFFFF"/><ellipse cx="50.4" cy="45.4" rx="2.4" ry="2.9" fill="#F2E8DC"/><path d="M50.4 49.6 L52 53.4 L50.4 55 L48.8 53.4 Z" fill="#F2E8DC"/><path d="M53.6 48.4 Q56 54.6 55 62 L53.4 62 Q54.2 54.6 52.4 49.4 Z" fill="#7FB4E0"/><path d="M46 49 Q44 54.6 44.8 62 L46.2 62 Q45.6 54.6 47 49.4 Z" fill="#7FB4E0" opacity="0.55"/><path d="M45 84 L45 74 Q50 70 55 74 L55 84 Z" fill="#4A535B"/><rect x="30.0" y="74.0" width="10.0" height="5.0" fill="#ADA79C"/><rect x="62.0" y="74.0" width="10.0" height="5.0" fill="#ADA79C"/><path d="M28 84 L28 76 Q33 72 38 76 L38 84 Z" fill="#ADA79C"/><path d="M64 84 L64 76 Q69 72 74 76 L74 84 Z" fill="#ADA79C"/><ellipse cx="50.0" cy="88.0" rx="17.0" ry="5.0" fill="#ADA79C"/><rect x="33.0" y="80.0" width="34.0" height="8.0" fill="#DCD8D0"/><ellipse cx="50.0" cy="80.0" rx="17.0" ry="5.0" fill="#C8C3B9"/><ellipse cx="50.0" cy="80.0" rx="13.0" ry="3.4" fill="#8FA6B4"/><rect x="49.2" y="72.0" width="1.6" height="8.0" fill="#8FA6B4" opacity="0.9"/><ellipse cx="7.3" cy="76.7" rx="2.4" ry="2.4" fill="#356643"/><ellipse cx="12.7" cy="76.6" rx="2.2" ry="2.2" fill="#356643"/><ellipse cx="10.0" cy="75.6" rx="3.0" ry="3.0" fill="#356643"/><ellipse cx="87.3" cy="76.7" rx="2.4" ry="2.4" fill="#4C8459"/><ellipse cx="92.7" cy="76.6" rx="2.2" ry="2.2" fill="#4C8459"/><ellipse cx="90.0" cy="75.6" rx="3.0" ry="3.0" fill="#4C8459"/>
</svg>
