<?xml version="1.0" encoding="UTF-8" standalone="no"?>
<!-- Created with Inkscape (http://www.inkscape.org/) -->

<svg
   width="512"
   height="512"
   viewBox="0 0 512 512"
   version="1.1"
   id="svg1"
   xml:space="preserve"
   sodipodi:docname="coreon_logo_light.svg"
   inkscape:version="1.4.2 (ebf0e940, 2025-05-08)"
   inkscape:export-filename="coreon_logo.png"
   inkscape:export-xdpi="96"
   inkscape:export-ydpi="96"
   xmlns:inkscape="http://www.inkscape.org/namespaces/inkscape"
   xmlns:sodipodi="http://sodipodi.sourceforge.net/DTD/sodipodi-0.dtd"
   xmlns:xlink="http://www.w3.org/1999/xlink"
   xmlns="http://www.w3.org/2000/svg"
   xmlns:svg="http://www.w3.org/2000/svg"><sodipodi:namedview
     id="namedview1"
     pagecolor="#ffffff"
     bordercolor="#666666"
     borderopacity="1.0"
     inkscape:showpageshadow="2"
     inkscape:pageopacity="0.0"
     inkscape:pagecheckerboard="0"
     inkscape:deskcolor="#d1d1d1"
     inkscape:document-units="px"
     showguides="true"
     inkscape:zoom="3.25"
     inkscape:cx="236"
     inkscape:cy="170.15385"
     inkscape:window-width="3008"
     inkscape:window-height="1633"
     inkscape:window-x="0"
     inkscape:window-y="31"
     inkscape:window-maximized="0"
     inkscape:current-layer="layer1"><sodipodi:guide
       position="0,512"
       orientation="0,512"
       id="guide15"
       inkscape:locked="false" /><sodipodi:guide
       position="512,512"
       orientation="512,0"
       id="guide16"
       inkscape:locked="false" /><sodipodi:guide
       position="512,0"
       orientation="0,-512"
       id="guide17"
       inkscape:locked="false" /><sodipodi:guide
       position="0,0"
       orientation="-512,0"
       id="guide18"
       inkscape:locked="false" /><sodipodi:guide
       position="0,512"
       orientation="0,512"
       id="guide19"
       inkscape:locked="false" /><sodipodi:guide
       position="512,512"
       orientation="512,0"
       id="guide20"
       inkscape:locked="false" /><sodipodi:guide
       position="512,0"
       orientation="0,-512"
       id="guide21"
       inkscape:locked="false" /><sodipodi:guide
       position="0,0"
       orientation="-512,0"
       id="guide22"
       inkscape:locked="false" /><sodipodi:guide
       position="256,401.23077"
       orientation="-1,0"
       id="guide23"
       inkscape:locked="false"
       inkscape:label=""
       inkscape:color="rgb(0,134,229)" /><sodipodi:guide
       position="-25.230769,312"
       orientation="0,-1"
       id="guide24"
       inkscape:locked="false" /><sodipodi:guide
       position="168.30769,495.07692"
       orientation="1,0"
       id="guide67"
       inkscape:locked="false" /></sodipodi:namedview><defs
     id="defs1"><linearGradient
       id="linearGradient164"
       inkscape:label="left C"><stop
         style="stop-color:#488fe0;stop-opacity:1;"
         offset="0.07024167"
         id="stop164" /><stop
         style="stop-color:#8cc0ef;stop-opacity:1;"
         offset="1"
         id="stop163" /></linearGradient><linearGradient
       id="linearGradient162"
       inkscape:label="left C"><stop
         style="stop-color:#8cc0ef;stop-opacity:1;"
         offset="0"
         id="stop162" /><stop
         style="stop-color:#488fe0;stop-opacity:1;"
         offset="0.92975833"
         id="stop161" /></linearGradient><linearGradient
       id="linearGradient147"
       inkscape:label="top c"><stop
         style="stop-color:#2081e8;stop-opacity:1;"
         offset="0.09801489"
         id="stop147" /><stop
         style="stop-color:#8cc0ef;stop-opacity:1;"
         offset="1"
         id="stop146" /></linearGradient><linearGradient
       id="linearGradient120"
       inkscape:label="left C"><stop
         style="stop-color:#8cc0ef;stop-opacity:1;"
         offset="0"
         id="stop119" /><stop
         style="stop-color:#157fec;stop-opacity:1;"
         offset="1"
         id="stop120" /></linearGradient><linearGradient
       id="linearGradient111"
       inkscape:label="left C"><stop
         style="stop-color:#8cc0ef;stop-opacity:1;"
         offset="0.3523573"
         id="stop117" /><stop
         style="stop-color:#2081e8;stop-opacity:1;"
         offset="0.90198511"
         id="stop116" /></linearGradient><linearGradient
       id="linearGradient101"><stop
         style="stop-color:#488fe0;stop-opacity:1;"
         offset="0"
         id="stop114" /><stop
         style="stop-color:#137eed;stop-opacity:1;"
         offset="0.90307695"
         id="stop115" /></linearGradient><linearGradient
       id="linearGradient111-1"
       inkscape:label="left C"><stop
         style="stop-color:#488fe0;stop-opacity:1;"
         offset="0.07024167"
         id="stop111" /><stop
         style="stop-color:#8cc0ef;stop-opacity:1;"
         offset="1"
         id="stop110" /></linearGradient><linearGradient
       id="linearGradient101-1"
       inkscape:label="bottom c"><stop
         style="stop-color:#488fe0;stop-opacity:1;"
         offset="0.34769231"
         id="stop102" /><stop
         style="stop-color:#137eed;stop-opacity:1;"
         offset="0.90307695"
         id="stop101" /></linearGradient><inkscape:path-effect
       effect="mirror_symmetry"
       start_point="162.51154,335.5513"
       end_point="392.91342,335.5513"
       center_point="277.71248,335.5513"
       id="path-effect68"
       is_visible="true"
       lpeversion="1.2"
       lpesatellites=""
       mode="free"
       discard_orig_path="false"
       fuse_paths="false"
       oposite_fuse="false"
       split_items="false"
       split_open="false"
       link_styles="false" /><linearGradient
       id="linearGradient66-1"
       inkscape:label="top c"><stop
         style="stop-color:#8cc0ef;stop-opacity:1;"
         offset="0"
         id="stop67" /><stop
         style="stop-color:#2081e8;stop-opacity:1;"
         offset="0.90198511"
         id="stop66" /></linearGradient><linearGradient
       id="swatch15"
       inkscape:swatch="solid"><stop
         style="stop-color:#4390e3;stop-opacity:1;"
         offset="0"
         id="stop15" /></linearGradient><rect
       x="424.61539"
       y="398.15385"
       width="166.76923"
       height="97.846154"
       id="rect2" /><rect
       x="24.615385"
       y="419.69231"
       width="377.23077"
       height="99.076923"
       id="rect1" /><linearGradient
       inkscape:collect="always"
       xlink:href="#linearGradient147"
       id="linearGradient110"
       x1="211.54858"
       y1="335.31281"
       x2="406.04172"
       y2="163.31277"
       gradientUnits="userSpaceOnUse"
       gradientTransform="matrix(0.60783844,0,0,0.63544056,94.133705,37.132104)" /><linearGradient
       inkscape:collect="always"
       xlink:href="#linearGradient111-1"
       id="linearGradient119"
       x1="281.07828"
       y1="224.92308"
       x2="232.00134"
       y2="175.69231"
       gradientUnits="userSpaceOnUse"
       gradientTransform="matrix(0.60783844,0,0,0.63544056,93.300138,37.132104)" /><linearGradient
       inkscape:collect="always"
       xlink:href="#linearGradient147"
       id="linearGradient142"
       x1="158.70097"
       y1="181.44987"
       x2="374.38153"
       y2="181.44987"
       gradientUnits="userSpaceOnUse"
       gradientTransform="matrix(0.60783844,0,0,0.63544056,97.282947,39.021371)" /><linearGradient
       inkscape:collect="always"
       xlink:href="#linearGradient101-1"
       id="linearGradient144"
       x1="206.16869"
       y1="231.22057"
       x2="353.40961"
       y2="231.22057"
       gradientUnits="userSpaceOnUse"
       gradientTransform="matrix(0.60783844,0,0,0.63544056,97.282947,39.021371)" /><linearGradient
       inkscape:collect="always"
       xlink:href="#linearGradient101-1"
       id="linearGradient146"
       x1="285.66415"
       y1="302.65582"
       x2="285.66415"
       y2="125.22797"
       gradientUnits="userSpaceOnUse"
       gradientTransform="matrix(0.60783844,0,0,0.63544056,97.282947,39.021371)" /><linearGradient
       inkscape:collect="always"
       xlink:href="#linearGradient101-1"
       id="linearGradient159"
       x1="142.63654"
       y1="93.829765"
       x2="400.91342"
       y2="93.829765"
       gradientUnits="userSpaceOnUse"
       gradientTransform="matrix(0.60783844,0,0,0.63544056,94.133705,37.132104)" /><linearGradient
       inkscape:collect="always"
       xlink:href="#linearGradient101-1"
       id="linearGradient161"
       x1="114.79083"
       y1="306.69943"
       x2="406.95786"
       y2="306.69943"
       gradientUnits="userSpaceOnUse"
       gradientTransform="matrix(0.60783844,0,0,0.63544056,94.133705,37.132104)" /></defs><g
     inkscape:label="Calque 1"
     inkscape:groupmode="layer"
     id="layer1"
     style="display:inline"><g
       id="g9"
       inkscape:label="logo"
       transform="matrix(1.645174,0,0,1.5737113,-153.88093,-58.435211)"><g
         id="g5"
         inkscape:label="Outer C"
         transform="translate(-2.1255691)"><path
           d="m 366.82794,284.73437 a 156.30769,162.76923 0 0 1 -112.2832,61.66797 156.30769,162.76923 0 0 1 -139.75391,-70.88086 c 3.70868,7.01011 7.9149,13.72806 12.57032,20.10743 0.20039,0.2746 0.40338,0.54699 0.60546,0.82031 4.6509,5.97931 9.30038,11.60929 13.94922,16.69922 22.37605,23.07114 51.64786,39.61573 84.89258,46.22851 73.36594,14.59339 147.3653,-22.90639 178.97852,-90.70117 a 12.5,12.5 0 0 0 -6.04688,-16.61133 12.5,12.5 0 0 0 -15.83984,4.63477 156.30769,162.76923 0 0 1 -10.21485,18.15039 c -0.51374,0.79186 -0.91687,1.67615 -1.44531,2.45508 -1.72779,2.54679 -3.53292,5.02388 -5.41211,7.42968 z"
           style="baseline-shift:baseline;display:inline;overflow:visible;opacity:1;vector-effect:none;fill:url(#linearGradient161);fill-rule:evenodd;stroke-linecap:round;paint-order:fill markers stroke;enable-background:accumulate;stop-color:#000000;stop-opacity:1"
           id="path152" /><path
           d="M 384.03497,96.792969 A 156.30769,162.76923 0 0 0 276.43341,50.166016 156.30769,162.76923 0 0 0 142.63654,126.24219 c 7.65017,-12.01683 17.00784,-22.9208 28.04687,-32.080081 14.1462,-11.737358 30.81757,-20.767753 49.35156,-26.169922 60.88255,-17.745649 125.84667,8.337914 157.55469,63.257813 a 12.5,12.5 0 0 0 17.07617,4.57617 12.5,12.5 0 0 0 4.58399,-17.05469 c -0.84671,-1.48567 -1.66538,-2.94949 -2.90039,-4.83398 -3.76578,-6.03418 -7.8838,-11.75443 -12.31446,-17.144531 z"
           style="baseline-shift:baseline;display:inline;overflow:visible;opacity:1;vector-effect:none;fill:url(#linearGradient159);fill-opacity:1;fill-rule:evenodd;stroke-linecap:round;paint-order:fill markers stroke;enable-background:accumulate;stop-color:#000000;stop-opacity:1"
           id="path156" /><path
           id="path155"
           style="baseline-shift:baseline;display:inline;overflow:visible;opacity:1;vector-effect:none;fill:url(#linearGradient110);fill-rule:evenodd;stroke-linecap:round;paint-order:fill markers stroke;enable-background:accumulate;stop-color:#000000;stop-opacity:1"
           d="m 253.68536,37.566406 c -13.5338,0.398157 -27.18119,2.501007 -40.64648,6.425781 C 141.22403,64.924312 92.902959,132.35583 96.165833,207.08789 c 0.92454,21.17543 5.975817,41.36657 14.373047,59.79102 l 21.33203,-13.24219 c -6.25704,-14.78309 -9.9956,-30.85212 -10.72851,-47.63867 -1.13213,-25.92994 5.1908,-50.68824 17.03906,-72.21485 1.41115,-2.56386 2.8853,-5.07522 4.45508,-7.54101 A 156.30769,162.76923 0 0 1 276.43341,50.166016 156.30769,162.76923 0 0 1 384.03497,96.792969 C 352.00127,57.822439 303.61443,36.097522 253.68536,37.566406 Z M 131.87091,253.63672 110.53888,266.87891 c 1.33383,2.92656 2.75246,5.80825 4.25195,8.64257 a 156.30769,162.76923 0 0 0 139.75391,70.88086 156.30769,162.76923 0 0 0 112.2832,-61.66797 c -31.41384,40.21716 -83.36251,60.42236 -135.14062,50.12305 -45.71783,-9.09384 -82.45817,-40.20958 -99.81641,-81.2207 z" /></g><g
         id="g8"
         inkscape:label="Inner O"
         transform="translate(-10.15604,-5.182329)"><path
           d="m 264.07521,97.369829 c -22.24246,0.494834 -44.44499,7.826631 -63.20117,22.218751 -42.87127,32.89628 -54.77293,92.72901 -27.75391,139.52734 a 12.88005,12.88005 0 0 0 17.59571,4.71485 12.88005,12.88005 0 0 0 4.71484,-17.59571 c -15.63282,-27.07684 -14.27409,-59.60224 1.51953,-84.7207 a 95.473747,95.473747 0 0 1 97.37305,-45.41406 95.473747,95.473747 0 0 1 80.05468,90.01562 c 0.22837,-28.08651 -10.43727,-56.11305 -31.54687,-77.22265 -21.4935,-21.49351 -50.15841,-32.159657 -78.75586,-31.523441 z"
           style="baseline-shift:baseline;display:inline;overflow:visible;opacity:1;vector-effect:none;fill:url(#linearGradient142);fill-rule:evenodd;stroke-linecap:round;paint-order:fill markers stroke;enable-background:accumulate;stop-color:#000000;stop-opacity:1"
           id="path127" /><path
           d="m 211.35646,297.77803 a 95,95 0 0 0 118.34375,-19.5 95,95 0 0 0 -0.51953,-126.16601 c 24.8621,29.27031 26.2778,72.08977 2.51758,103.05468 -25.14785,32.77332 -70.43555,41.78189 -106.21094,21.12696 a 12.88005,12.88005 0 0 0 -17.59375,4.71484 12.88005,12.88005 0 0 0 3.46289,16.76953 z"
           style="baseline-shift:baseline;display:inline;overflow:visible;opacity:1;vector-effect:none;fill:url(#linearGradient144);fill-opacity:1;fill-rule:evenodd;stroke-linecap:round;paint-order:fill markers stroke;enable-background:accumulate;stop-color:#000000;stop-opacity:1"
           id="path139" /><path
           d="m 281.70998,114.90108 a 95.473747,95.473747 0 0 0 -84.75977,46.61328 c 5.07377,-8.06941 11.63685,-15.37375 19.60547,-21.48828 32.12126,-24.6475 77.01562,-22.22621 106.29101,5.38086 l 0.006,-0.006 a 95,95 0 0 1 0.23047,0.21094 c 0.51633,0.49059 1.02686,0.98975 1.53321,1.49609 1.6118,1.6118 3.11247,3.29448 4.56445,5.00391 a 95,95 0 0 1 0.51953,126.16601 95,95 0 0 1 -118.34375,19.5 12.88005,12.88005 0 0 0 1.25195,0.82422 c 46.79833,27.01903 106.63106,15.11736 139.52735,-27.75391 14.72263,-19.18691 22.05719,-41.97929 22.24218,-64.73242 a 95.473747,95.473747 0 0 0 -80.05468,-90.01562 95.473747,95.473747 0 0 0 -12.61328,-1.19922 z"
           style="baseline-shift:baseline;display:inline;overflow:visible;opacity:1;vector-effect:none;fill:url(#linearGradient146);fill-opacity:1;fill-rule:evenodd;stroke-linecap:round;paint-order:fill markers stroke;enable-background:accumulate;stop-color:#000000;stop-opacity:1"
           id="path137" /></g><circle
         style="opacity:1;mix-blend-mode:normal;fill:url(#linearGradient119);fill-opacity:1;fill-rule:evenodd;stroke:none;stroke-width:25;stroke-linecap:round;stroke-dasharray:none;stroke-opacity:1;paint-order:fill markers stroke"
         id="path8"
         inkscape:label="Center"
         r="25"
         cy="200"
         cx="256.38596" /></g></g></svg>
